<?xml version="1.0" encoding="UTF-8"?>
<svg version="1.1" xmlns="http://www.w3.org/2000/svg" width="800" height="800">
<path d="M0 0 C264 0 528 0 800 0 C800 264 800 528 800 800 C536 800 272 800 0 800 C0 536 0 272 0 0 Z " fill="#D8D8D8" transform="translate(0,0)"/>
<path d="M0 0 C7.59 0 15.18 0 23 0 C16.74148149 15.64629626 7.63318287 27.50256276 -7.78125 34.8125 C-13.05990046 36.75996328 -18.41926909 37.47793162 -24 38 C-23.50371094 38.4846875 -23.00742187 38.969375 -22.49609375 39.46875 C-18.50362708 43.40818581 -14.69650287 47.42546813 -11.0390625 51.67578125 C-8.45246655 54.62410422 -5.79163286 57.49914606 -3.125 60.375 C1.20017329 65.04193354 5.48265267 69.74281442 9.73046875 74.48046875 C14.11871554 79.35210245 18.56373809 84.17212324 23 89 C24.87557326 91.0411411 26.75066777 93.0827192 28.625 95.125 C29.08664551 95.62789551 29.54829102 96.13079102 30.02392578 96.64892578 C32.78747924 99.66380063 35.52593524 102.69945557 38.25 105.75 C42.31913441 110.28186991 46.46354086 114.74059045 50.625 119.1875 C51.24665039 119.85297852 51.86830078 120.51845703 52.50878906 121.20410156 C56.59098519 125.55455011 60.76080893 129.80276195 65 134 C67.8108157 136.80200437 70.60649629 139.61702065 73.3828125 142.453125 C80.57687613 149.77383793 87.77649015 156.82055223 96 163 C96.9796875 163.74636719 97.959375 164.49273438 98.96875 165.26171875 C116.79981314 178.2598576 134.1583406 183.34361853 156 184 C156 184.99 156 185.98 156 187 C130.07313158 193.88106461 106.22732184 189.87052687 83 177 C79.08056399 174.58915879 75.53947846 171.93556151 72 169 C70.98679687 168.18660156 69.97359375 167.37320313 68.9296875 166.53515625 C55.19958944 155.29057461 42.55260493 142.45271676 31 129 C29.50429773 127.32947538 28.00495734 125.66219168 26.5 124 C23.84886006 121.06321535 21.21709829 118.11397458 18.625 115.125 C15.21656417 111.21161071 11.70912485 107.39153031 8.19677734 103.57177734 C1.97955904 96.8085529 -4.15961193 89.9804453 -10.1953125 83.0546875 C-13.75639198 79.00029831 -17.3841225 75.005467 -21 71 C-22.50028679 69.33359149 -24.00028872 67.66692647 -25.5 66 C-26.61375 64.7625 -26.61375 64.7625 -27.75 63.5 C-30 61 -32.25 58.5 -34.5 56 C-35.2425 55.17757812 -35.985 54.35515625 -36.75 53.5078125 C-38.26038425 51.82436339 -39.76029766 50.13146552 -41.25 48.4296875 C-49.9643779 38.27443165 -49.9643779 38.27443165 -61 31 C-61 30.01 -61 29.02 -61 28 C-60.410979 27.98018066 -59.82195801 27.96036133 -59.21508789 27.93994141 C-56.49717649 27.84356723 -53.77991897 27.73435288 -51.0625 27.625 C-50.13630859 27.5940625 -49.21011719 27.563125 -48.25585938 27.53125 C-42.29095215 27.28009601 -36.77227601 26.51246572 -31 25 C-29.86433594 24.71640625 -28.72867188 24.4328125 -27.55859375 24.140625 C-16.98170513 21.12243901 -9.33951691 16.13211423 -3 7 C-2.01 4.69 -1.02 2.38 0 0 Z " fill="#020202" transform="translate(507,387)"/>
<path d="M0 0 C0 0.99 0 1.98 0 3 C-0.79664063 3.23074219 -1.59328125 3.46148437 -2.4140625 3.69921875 C-10.27335481 6.11819801 -16.05818156 8.04304106 -20.12213135 15.58728027 C-22.35582167 20.21347808 -22.57659768 24.27901459 -22.54589844 29.35351562 C-22.56140495 30.70126068 -22.56140495 30.70126068 -22.57722473 32.07623291 C-22.60651283 35.01975792 -22.60814894 37.96259112 -22.609375 40.90625 C-22.62436609 42.95749207 -22.64109518 45.00872211 -22.65948486 47.05993652 C-22.70306613 52.43897067 -22.7231371 57.817842 -22.73822021 63.19702148 C-22.75782451 68.69394521 -22.79979082 74.19069397 -22.83984375 79.6875 C-22.91504622 90.45830887 -22.96332951 101.22899095 -23 112 C-29.6 112 -36.2 112 -43 112 C-43 79.66 -43 47.32 -43 14 C-74.5993679 13.54717698 -74.5993679 13.54717698 -103 27 C-105.81260349 31.95401751 -106.98286145 37.36492767 -106 43 C-104.2241962 48.23193807 -101.84640014 52.17293325 -97 55 C-93.04423908 56.48922764 -89.04805651 57.78622867 -85 59 C-85 59.66 -85 60.32 -85 61 C-102.67052806 61.828306 -102.67052806 61.828306 -109.703125 55.45703125 C-115.15378722 49.67562497 -117.13043363 43.87476666 -117.4375 36 C-117.17200904 27.87189205 -114.68451734 23.34358837 -108.875 17.75 C-104.2990427 13.90529123 -99.64767193 11.81371976 -94 10 C-93.09765625 9.65453125 -92.1953125 9.3090625 -91.265625 8.953125 C-87.14442132 7.75028565 -83.20730991 7.43426931 -78.9375 7.125 C-76.90486667 6.96194716 -74.87232303 6.79777448 -72.83984375 6.6328125 C-71.6472998 6.53774414 -70.45475586 6.44267578 -69.22607422 6.34472656 C-61.15019211 5.6924221 -53.07965274 4.97565425 -45.00881958 4.26409912 C-42.05814654 4.00510381 -39.10710307 3.75069178 -36.15600586 3.49658203 C-26.72996469 2.67412129 -17.35798885 1.74862492 -7.99609375 0.3671875 C-5.29028557 0.03557607 -2.72162614 -0.07095487 0 0 Z " fill="#050505" transform="translate(408,243)"/>
<path d="M0 0 C6.27 0 12.54 0 19 0 C19.00142502 1.44579941 19.00285004 2.89159882 19.00431824 4.38121033 C19.0210028 18.02041562 19.06352585 31.6593716 19.13209057 45.29840755 C19.16668054 52.31005742 19.19208817 59.32151192 19.19555664 66.33325195 C19.19893142 73.1026573 19.22832181 79.87155587 19.27343178 86.64081001 C19.28640036 89.22067974 19.29071677 91.80060823 19.28615379 94.38050652 C19.28124373 98.00021967 19.30736239 101.61850024 19.34057617 105.23803711 C19.32763771 106.8305555 19.32763771 106.8305555 19.31443787 108.45524597 C19.42122616 115.4184335 20.84056576 120.35268846 25 126 C30.06184108 130.814922 36.31759168 131.17821516 43 132 C43 132.99 43 133.98 43 135 C20.89 135 -1.22 135 -24 135 C-24 134.01 -24 133.02 -24 132 C-23.27554687 131.90203125 -22.55109375 131.8040625 -21.8046875 131.703125 C-14.57721568 130.58527603 -9.96118259 129.04343766 -4.75 123.6875 C-0.49183771 117.14817934 -0.69684097 110.29954457 -0.68115234 102.74047852 C-0.67110672 101.62754929 -0.6610611 100.51462006 -0.65071106 99.3679657 C-0.61992531 95.70495093 -0.60285648 92.04200911 -0.5859375 88.37890625 C-0.56722218 85.83299636 -0.54764849 83.28709265 -0.5272522 80.74119568 C-0.48120025 74.7349051 -0.44377829 68.72862124 -0.41057932 62.72225088 C-0.37227859 55.88056482 -0.32288943 49.03897264 -0.27259517 42.19736588 C-0.16944179 28.13164584 -0.08052106 14.06586617 0 0 Z " fill="#000000" transform="translate(416,387)"/>
<path d="M0 0 C11.99694997 -0.09312197 23.99381242 -0.16397776 35.99105167 -0.20724869 C41.56325712 -0.22802785 47.13521333 -0.25616681 52.70727539 -0.30175781 C58.09545237 -0.34556295 63.48339125 -0.36920962 68.87173271 -0.37950897 C70.91640401 -0.3868386 72.96106387 -0.4011496 75.0056324 -0.42292023 C95.20549168 -0.62924411 112.41978808 2.0293468 127.7109375 16.51953125 C135.13996658 24.569759 141 34.88357354 141 46 C133.41 46 125.82 46 118 46 C116 40 116 40 115.140625 37.32421875 C111.47553911 26.47363551 106.43004781 18.44145081 96.109375 13.00390625 C89.50409462 10.00281147 83.22745767 9.81371029 76.10546875 9.68359375 C74.68443596 9.6524221 74.68443596 9.6524221 73.23469543 9.62062073 C70.2190349 9.55542222 67.2032899 9.49637868 64.1875 9.4375 C62.13866326 9.39428652 60.08983496 9.35067134 58.04101562 9.30664062 C53.02742893 9.19901807 48.01377489 9.09972383 43 9 C43 21.21 43 33.42 43 46 C36.73 46 30.46 46 24 46 C23.96261719 44.29972656 23.92523438 42.59945312 23.88671875 40.84765625 C23.82102507 38.58591669 23.75457893 36.3241989 23.6875 34.0625 C23.66494141 32.94552734 23.64238281 31.82855469 23.61914062 30.67773438 C23.38084513 23.29057402 23.07830138 15.8782312 18.31640625 9.87890625 C17.73761719 9.44449219 17.15882813 9.01007813 16.5625 8.5625 C15.98628906 8.11003906 15.41007812 7.65757812 14.81640625 7.19140625 C11.28080963 4.87235901 8.48406509 3.74859398 4.25 3.375 C3.45078125 3.30023438 2.6515625 3.22546875 1.828125 3.1484375 C1.22484375 3.09945313 0.6215625 3.05046875 0 3 C0 2.01 0 1.02 0 0 Z " fill="#020202" transform="translate(392,309)"/>
<path d="M0 0 C6.6 0 13.2 0 20 0 C20.01458252 1.72557129 20.02916504 3.45114258 20.04418945 5.22900391 C20.09593776 10.94481006 20.16124958 16.66035473 20.23571491 22.37590981 C20.2803494 25.83961259 20.31962018 29.30319964 20.34643555 32.76708984 C20.37753763 36.75383392 20.43232449 40.74008676 20.48828125 44.7265625 C20.49467117 45.96427399 20.5010611 47.20198547 20.50764465 48.47720337 C20.64294293 56.64222534 20.64294293 56.64222534 24 64 C24.33 64.99 24.66 65.98 25 67 C26.78228936 68.14209817 26.78228936 68.14209817 29 69 C29.721875 69.350625 30.44375 69.70125 31.1875 70.0625 C35.0675661 71.35585537 38.93867715 71.66376848 43 72 C43 72.99 43 73.98 43 75 C20.89 75 -1.22 75 -24 75 C-24 74.01 -24 73.02 -24 72 C-23.20335937 71.90203125 -22.40671875 71.8040625 -21.5859375 71.703125 C-11.92003846 70.4167351 -11.92003846 70.4167351 -4.68086243 64.26246643 C-0.46448884 57.49788292 -0.26730605 51.48531696 -0.29296875 43.65234375 C-0.27784744 42.39990372 -0.26272614 41.14746368 -0.24714661 39.85707092 C-0.21164397 36.55748921 -0.19712513 33.25872537 -0.19311523 29.95898438 C-0.18372892 26.57991072 -0.1462818 23.2011544 -0.11132812 19.82226562 C-0.04859757 13.21477677 -0.01616519 6.60776021 0 0 Z " fill="#030303" transform="translate(365,387)"/>
<path d="M0 0 C3.375 0.9375 3.375 0.9375 5.375 3.9375 C5.83655369 7.55300392 5.82906883 9.27386094 3.75 12.3125 C0.69714079 14.40129841 -0.99468224 14.47818562 -4.625 13.9375 C-6.5 12.875 -6.5 12.875 -7.625 10.9375 C-8.12391602 7.01744554 -8.17753414 4.82155462 -6.0625 1.4375 C-3.625 -0.0625 -3.625 -0.0625 0 0 Z " fill="#0C0C0C" transform="translate(592.625,362.0625)"/>
<path d="M0 0 C3 1 3 1 4.16796875 2.84765625 C5.11197917 4.8984375 6.05598958 6.94921875 7 9 C8.65 6.03 10.3 3.06 12 0 C12.99 0 13.98 0 15 0 C15 4.62 15 9.24 15 14 C14.01 14 13.02 14 12 14 C11.67 12.35 11.34 10.7 11 9 C10.54625 9.825 10.0925 10.65 9.625 11.5 C9.08875 12.325 8.5525 13.15 8 14 C7.34 14 6.68 14 6 14 C5.01 12.02 4.02 10.04 3 8 C2.67 9.98 2.34 11.96 2 14 C1.34 14 0.68 14 0 14 C0 9.38 0 4.76 0 0 Z " fill="#242424" transform="translate(553,362)"/>
<path d="M0 0 C7 0 7 0 9 1.25 C10 3 10 3 9.8125 5.0625 C9 7 9 7 7 9 C7.33 9.99 7.66 10.98 8 12 C8.99 12 9.98 12 11 12 C11 12.66 11 13.32 11 14 C8.625 13.6875 8.625 13.6875 6 13 C5.34 12.01 4.68 11.02 4 10 C3.67 11.32 3.34 12.64 3 14 C2.01 14 1.02 14 0 14 C0 9.38 0 4.76 0 0 Z " fill="#252525" transform="translate(447,362)"/>
<path d="M0 0 C0.66 0.99 1.32 1.98 2 3 C-0.70879335 4.35439668 -3.00933268 4.06501451 -6 4 C-6 6.31 -6 8.62 -6 11 C-4.02 11 -2.04 11 0 11 C0 10.34 0 9.68 0 9 C-0.99 9 -1.98 9 -3 9 C-3 8.34 -3 7.68 -3 7 C-1.35 7 0.3 7 2 7 C2 9.31 2 11.62 2 14 C0.56344146 14.08131463 -0.8744483 14.13933559 -2.3125 14.1875 C-3.51326172 14.23970703 -3.51326172 14.23970703 -4.73828125 14.29296875 C-7 14 -7 14 -8.765625 12.703125 C-10.84645235 9.83211005 -10.41903757 7.41216306 -10 4 C-7.26641869 -0.10037196 -4.80655567 -0.73143239 0 0 Z " fill="#131313" transform="translate(232,362)"/>
<path d="M0 0 C0.99 0.33 1.98 0.66 3 1 C4.38671875 3.94140625 4.38671875 3.94140625 5.6875 7.5625 C6.34298828 9.35880859 6.34298828 9.35880859 7.01171875 11.19140625 C7.33785156 12.11824219 7.66398437 13.04507812 8 14 C7.01 14 6.02 14 5 14 C4.67 13.34 4.34 12.68 4 12 C2.02 12 0.04 12 -2 12 C-2.33 12.66 -2.66 13.32 -3 14 C-3.66 14 -4.32 14 -5 14 C-4.34580901 8.93001981 -2.1453591 4.58009223 0 0 Z " fill="#0B0B0B" transform="translate(478,362)"/>
<path d="M0 0 C0.66 0 1.32 0 2 0 C2.83764268 1.95649397 3.66999059 3.91525556 4.5 5.875 C4.9640625 6.96554687 5.428125 8.05609375 5.90625 9.1796875 C7 12 7 12 7 14 C6.01 13.67 5.02 13.34 4 13 C4 12.34 4 11.68 4 11 C1.69 11 -0.62 11 -3 11 C-3 11.99 -3 12.98 -3 14 C-3.99 14 -4.98 14 -6 14 C-2.90009699 3.90882638 -2.90009699 3.90882638 0 0 Z " fill="#161616" transform="translate(285,362)"/>
<path d="M0 0 C2.97 0 5.94 0 9 0 C9 0.99 9 1.98 9 3 C7.02 3 5.04 3 3 3 C3 3.99 3 4.98 3 6 C4.98 6 6.96 6 9 6 C9 6.66 9 7.32 9 8 C7.02 8 5.04 8 3 8 C3 9.32 3 10.64 3 12 C4.98 12 6.96 12 9 12 C9 12.66 9 13.32 9 14 C6.03 14 3.06 14 0 14 C0 9.38 0 4.76 0 0 Z " fill="#222222" transform="translate(527,362)"/>
<path d="M0 0 C0.99 0 1.98 0 3 0 C4.38671875 1.75 4.38671875 1.75 5.6875 4 C6.12449219 4.7425 6.56148438 5.485 7.01171875 6.25 C7.33785156 6.8275 7.66398437 7.405 8 8 C8.33 5.36 8.66 2.72 9 0 C9.66 0 10.32 0 11 0 C11 4.29 11 8.58 11 13 C10.01 13 9.02 13 8 13 C6.61328125 11.25 6.61328125 11.25 5.3125 9 C4.87550781 8.2575 4.43851562 7.515 3.98828125 6.75 C3.66214844 6.1725 3.33601562 5.595 3 5 C2.67 7.64 2.34 10.28 2 13 C1.34 13 0.68 13 0 13 C0 8.71 0 4.42 0 0 Z " fill="#060606" transform="translate(252,363)"/>
<path d="M0 0 C3.125 0.375 3.125 0.375 6 1 C6.33 1.99 6.66 2.98 7 4 C4.69 3.67 2.38 3.34 0 3 C2.12780579 5.34058637 4.11562221 6.70700306 7 8 C6.125 12.875 6.125 12.875 5 14 C3.00041636 14.04080783 0.99954746 14.04254356 -1 14 C-1.66 12.68 -2.32 11.36 -3 10 C-0.69 10.66 1.62 11.32 4 12 C3.67 11.01 3.34 10.02 3 9 C0.49552484 7.78130071 0.49552484 7.78130071 -2 7 C-2.125 4.625 -2.125 4.625 -2 2 C-1.34 1.34 -0.68 0.68 0 0 Z " fill="#171717" transform="translate(385,362)"/>
<path d="M0 0 C3.96 0 7.92 0 12 0 C11.67 0.99 11.34 1.98 11 3 C9.68 3 8.36 3 7 3 C7 6.63 7 10.26 7 14 C6.01 14 5.02 14 4 14 C4 10.37 4 6.74 4 3 C2.68 3 1.36 3 0 3 C0 2.01 0 1.02 0 0 Z " fill="#323232" transform="translate(500,362)"/>
<path d="M0 0 C0.66 0 1.32 0 2 0 C2.08114106 1.77007714 2.13925505 3.54122098 2.1875 5.3125 C2.22230469 6.29863281 2.25710938 7.28476562 2.29296875 8.30078125 C2 11 2 11 0.6796875 12.8359375 C-1.8894647 14.61641972 -3.9660448 14.32276119 -7 14 C-9 12 -9 12 -9.1953125 9.3984375 C-9.17210937 8.40070313 -9.14890625 7.40296875 -9.125 6.375 C-9.10695313 5.37210937 -9.08890625 4.36921875 -9.0703125 3.3359375 C-9.04710937 2.56507813 -9.02390625 1.79421875 -9 1 C-8.34 1 -7.68 1 -7 1 C-6.67 3.97 -6.34 6.94 -6 10 C-4.68 10.33 -3.36 10.66 -2 11 C-0.33657163 9.33657163 -0.63951903 7.2174291 -0.4375 4.9375 C-0.35371094 4.01839844 -0.26992188 3.09929687 -0.18359375 2.15234375 C-0.12300781 1.44207031 -0.06242187 0.73179687 0 0 Z " fill="#0C0C0C" transform="translate(363,362)"/>
<path d="M0 0 C3.63 0 7.26 0 11 0 C11 0.99 11 1.98 11 3 C9.68 3 8.36 3 7 3 C7 6.63 7 10.26 7 14 C6.01 14 5.02 14 4 14 C4 10.37 4 6.74 4 3 C2.68 3 1.36 3 0 3 C0 2.01 0 1.02 0 0 Z " fill="#0D0D0D" transform="translate(307,362)"/>
<path d="M0 0 C2.5 0.125 2.5 0.125 3.5 1.125 C3.6875 4.0625 3.6875 4.0625 3.5 7.125 C2.84 7.785 2.18 8.445 1.5 9.125 C-1.125 8.75 -1.125 8.75 -3.5 8.125 C-3.54241723 5.79205225 -3.54092937 3.45797433 -3.5 1.125 C-2.5 0.125 -2.5 0.125 0 0 Z " fill="#DADADA" transform="translate(591.5,364.875)"/>
<path d="M0 0 C0.78375 0.185625 1.5675 0.37125 2.375 0.5625 C4.97089775 1.25962266 4.97089775 1.25962266 7 0 C6.42655063 2.86724686 6.1385485 3.8614515 4 6 C4.33 6.99 4.66 7.98 5 9 C5.99 9 6.98 9 8 9 C8 9.66 8 10.32 8 11 C5.625 10.6875 5.625 10.6875 3 10 C2.34 9.01 1.68 8.02 1 7 C0.34 8.32 -0.32 9.64 -1 11 C-1.08912219 7.16774573 -0.87867729 3.73437848 0 0 Z " fill="#4D4D4D" transform="translate(450,365)"/>
<path d="M0 0 C3.625 0.375 3.625 0.375 7 1 C7.66 2.65 8.32 4.3 9 6 C8.01 6.99 7.02 7.98 6 9 C5.67 7.35 5.34 5.7 5 4 C3.35 4 1.7 4 0 4 C-0.33 5.65 -0.66 7.3 -1 9 C-1.99 8.01 -2.98 7.02 -4 6 C-2.84826645 3.53199953 -1.95216435 1.95216435 0 0 Z " fill="#292929" transform="translate(589,362)"/>
<path d="M0 0 C0.99 0.33 1.98 0.66 3 1 C4.22393475 3.95784231 3.96516243 5.99727245 3 9 C1.02 9 -0.96 9 -3 9 C-2.44271087 5.65626525 -1.64826111 2.96687001 0 0 Z " fill="#4D4D4D" transform="translate(478,362)"/>
<path d="M0 0 C0.99 0.33 1.98 0.66 3 1 C4.1875 3.5625 4.1875 3.5625 5 6 C4.01 6 3.02 6 2 6 C2 8.64 2 11.28 2 14 C1.34 14 0.68 14 0 14 C0 9.38 0 4.76 0 0 Z " fill="#0C0C0C" transform="translate(553,362)"/>
<path d="M0 0 C0.66 0.99 1.32 1.98 2 3 C0 4 0 4 -2.875 3.875 C-6.35577466 4.01423099 -7.49115529 4.68414334 -10 7 C-9.60856977 4.72970466 -9.11258722 3.16591802 -7.8125 1.25 C-5.13307088 -0.59788215 -3.16778103 -0.40439758 0 0 Z " fill="#222222" transform="translate(232,362)"/>
<path d="M0 0 C0.66 0.33 1.32 0.66 2 1 C1.67 1.66 1.34 2.32 1 3 C1.28112064 5.00800456 1.61067967 7.01014051 2 9 C0.02 9.33 -1.96 9.66 -4 10 C-3.52449439 8.51965236 -3.04448784 7.04074979 -2.5625 5.5625 C-2.29566406 4.73878906 -2.02882813 3.91507812 -1.75390625 3.06640625 C-1 1 -1 1 0 0 Z " fill="#575757" transform="translate(285,362)"/>
<path d="M0 0 C3.63 0 7.26 0 11 0 C11 0.99 11 1.98 11 3 C9.68 3 8.36 3 7 3 C7 6.63 7 10.26 7 14 C6.67 14 6.34 14 6 14 C6 9.71 6 5.42 6 1 C4.02 1 2.04 1 0 1 C0 0.67 0 0.34 0 0 Z " fill="#535353" transform="translate(307,362)"/>
<path d="M0 0 C2.97 0.495 2.97 0.495 6 1 C6.33 1.99 6.66 2.98 7 4 C4.03 4 1.06 4 -2 4 C-1.34 2.68 -0.68 1.36 0 0 Z " fill="#2E2E2E" transform="translate(385,362)"/>
<path d="M0 0 C0.66 0.33 1.32 0.66 2 1 C1.75 3.875 1.75 3.875 1 7 C-1.0625 8.375 -1.0625 8.375 -3 9 C-2.30058404 5.85262818 -1.23921302 2.97411124 0 0 Z " fill="#161616" transform="translate(596,367)"/>
<path d="M0 0 C0 0.99 0 1.98 0 3 C-4.75 2.25 -4.75 2.25 -7 0 C-4.3333581 -1.33332095 -2.83319697 -0.67102033 0 0 Z " fill="#C7C7C7" transform="translate(389,371)"/>
<path d="M0 0 C0.875 1.875 0.875 1.875 1 4 C-0.4375 5.75 -0.4375 5.75 -2 7 C-2.0825 6.21625 -2.165 5.4325 -2.25 4.625 C-2.72806339 1.85250896 -2.72806339 1.85250896 -5.0625 0.6875 C-5.701875 0.460625 -6.34125 0.23375 -7 0 C-3.98968256 -0.93423645 -3.13349732 -1.04449911 0 0 Z " fill="#373737" transform="translate(597,364)"/>
<path d="M0 0 C2 3 2 3 3 6 C2.01 6 1.02 6 0 6 C-0.33 5.34 -0.66 4.68 -1 4 C-4.02934491 3.34227572 -4.02934491 3.34227572 -7 3 C-7 2.67 -7 2.34 -7 2 C-4.69 1.34 -2.38 0.68 0 0 Z " fill="#1C1C1C" transform="translate(483,370)"/>
<path d="M0 0 C2.64 0.66 5.28 1.32 8 2 C8 2.66 8 3.32 8 4 C6.02 4 4.04 4 2 4 C1.34 2.68 0.68 1.36 0 0 Z " fill="#0B0B0B" transform="translate(382,372)"/>
</svg>
